<svg xmlns="http://www.w3.org/2000/svg" width="20.226" height="20.752" viewBox="0 0 20.226 20.752">
  <path id="Icon_awesome-arrow-down" data-name="Icon awesome-arrow-down" d="M19.269,11.073,20.3,12.1a1.107,1.107,0,0,1,0,1.57l-9,9a1.107,1.107,0,0,1-1.57,0l-9-9a1.107,1.107,0,0,1,0-1.57l1.028-1.028a1.113,1.113,0,0,1,1.589.019l5.317,5.581V3.362A1.109,1.109,0,0,1,9.769,2.25h1.482a1.109,1.109,0,0,1,1.112,1.112V16.673l5.317-5.581a1.1,1.1,0,0,1,1.589-.019Z" transform="translate(-0.397 -2.25)"/>
</svg>
