<svg xmlns="http://www.w3.org/2000/svg" width="16.447" height="19.605" viewBox="0 0 16.447 19.605">
  <path id="路径_7" data-name="路径 7" d="M18.689,0H13.617L10.568-5.045q-.342-.574-.656-1.025a5.7,5.7,0,0,0-.636-.772,2.528,2.528,0,0,0-.67-.492,1.7,1.7,0,0,0-.759-.171H6.658V0H2.242V-19.605h7q7.137,0,7.137,5.332a5.521,5.521,0,0,1-.314,1.894,5.26,5.26,0,0,1-.889,1.565,5.633,5.633,0,0,1-1.388,1.2,7.157,7.157,0,0,1-1.812.793v.055a2.81,2.81,0,0,1,.848.444,6.07,6.07,0,0,1,.793.718,10.014,10.014,0,0,1,.731.882q.349.472.636.923ZM6.658-16.3v5.455H8.572a3.173,3.173,0,0,0,2.283-.82,2.738,2.738,0,0,0,.875-2.064q0-2.57-3.076-2.57Z" transform="translate(-2.242 19.605)"/>
</svg>
