<svg xmlns="http://www.w3.org/2000/svg" width="13.453" height="20.275" viewBox="0 0 13.453 20.275">
  <path id="路径_8" data-name="路径 8" d="M1.34-.752V-5.127a8.407,8.407,0,0,0,2.584,1.5,8.306,8.306,0,0,0,2.816.5A6.246,6.246,0,0,0,8.2-3.281,3.411,3.411,0,0,0,9.235-3.7a1.819,1.819,0,0,0,.622-.629,1.569,1.569,0,0,0,.205-.786,1.7,1.7,0,0,0-.328-1.025,3.531,3.531,0,0,0-.9-.834,9.357,9.357,0,0,0-1.347-.738q-.779-.355-1.682-.725a8.583,8.583,0,0,1-3.425-2.338,5.1,5.1,0,0,1-1.128-3.336,5.313,5.313,0,0,1,.615-2.632,5.225,5.225,0,0,1,1.675-1.812A7.509,7.509,0,0,1,6-19.6a12.61,12.61,0,0,1,2.953-.335,17.762,17.762,0,0,1,2.714.185,10.673,10.673,0,0,1,2.181.567v4.088a6.594,6.594,0,0,0-1.073-.6,8.5,8.5,0,0,0-1.2-.431,9.125,9.125,0,0,0-1.224-.253A8.66,8.66,0,0,0,9.2-16.461a6.025,6.025,0,0,0-1.367.144,3.507,3.507,0,0,0-1.039.4,2.007,2.007,0,0,0-.656.622,1.474,1.474,0,0,0-.232.813,1.554,1.554,0,0,0,.26.882,2.98,2.98,0,0,0,.738.738,7.835,7.835,0,0,0,1.162.684q.684.335,1.545.69a17.215,17.215,0,0,1,2.112,1.046A7.509,7.509,0,0,1,13.33-9.187a4.873,4.873,0,0,1,1.025,1.593,5.628,5.628,0,0,1,.355,2.085,5.585,5.585,0,0,1-.622,2.755A5.05,5.05,0,0,1,12.4-.95,7.322,7.322,0,0,1,9.919.041a14.341,14.341,0,0,1-2.987.3A16.611,16.611,0,0,1,3.862.068,9.265,9.265,0,0,1,1.34-.752Z" transform="translate(-1.258 19.934)"/>
</svg>
