<svg xmlns="http://www.w3.org/2000/svg" width="14.268" height="18.927" viewBox="0 0 14.268 18.927">
  <path id="路径_5" data-name="路径 5" d="M15.1,1.583a12.069,12.069,0,0,1-5.233.97A8.82,8.82,0,0,1,3.243.077a9.05,9.05,0,0,1-2.412-6.6,9.669,9.669,0,0,1,2.712-7.121,9.486,9.486,0,0,1,7.038-2.731A13.163,13.163,0,0,1,15.1-15.7v3.969a8.005,8.005,0,0,0-4.186-1.1,5.553,5.553,0,0,0-4.161,1.621A6.014,6.014,0,0,0,5.17-6.815,5.9,5.9,0,0,0,6.663-2.584a5.275,5.275,0,0,0,4.02,1.576A8.575,8.575,0,0,0,15.1-2.182Z" transform="translate(-0.831 16.374)"/>
</svg>
