<svg xmlns="http://www.w3.org/2000/svg" width="21.107" height="20.573" viewBox="0 0 21.107 20.573">
  <path id="Icon_awesome-arrow-right" data-name="Icon awesome-arrow-right" d="M8.974,4.025,10.02,2.979a1.126,1.126,0,0,1,1.6,0l9.158,9.153a1.126,1.126,0,0,1,0,1.6l-9.158,9.158a1.126,1.126,0,0,1-1.6,0L8.974,21.842a1.132,1.132,0,0,1,.019-1.616l5.677-5.408H1.131A1.128,1.128,0,0,1,0,13.687V12.18a1.128,1.128,0,0,1,1.131-1.131H14.67L8.993,5.641A1.124,1.124,0,0,1,8.974,4.025Z" transform="translate(0 -2.647)"/>
</svg>
