<svg xmlns="http://www.w3.org/2000/svg" width="20.324" height="17.784" viewBox="0 0 20.324 17.784">
  <path id="Icon_metro-image" data-name="Icon metro-image" d="M21.623,5.126l0,0V20.367l0,0H3.843l0,0V5.129l0,0Zm0-1.27H3.841a1.274,1.274,0,0,0-1.27,1.27V20.37a1.274,1.274,0,0,0,1.27,1.27H21.625a1.274,1.274,0,0,0,1.27-1.27V5.126a1.274,1.274,0,0,0-1.27-1.27ZM19.084,8.3A1.905,1.905,0,1,1,17.179,6.4,1.905,1.905,0,0,1,19.084,8.3Zm1.27,10.8H5.111V16.559L9.557,8.937l5.081,6.351h1.27l4.446-3.811Z" transform="translate(-2.571 -3.856)"/>
</svg>
