<svg xmlns="http://www.w3.org/2000/svg" width="20.525" height="21.063" viewBox="0 0 20.525 21.063">
  <path id="Icon_awesome-arrow-up" data-name="Icon awesome-arrow-up" d="M1.772,14.354.729,13.311a1.124,1.124,0,0,1,0-1.594L9.863,2.578a1.124,1.124,0,0,1,1.594,0l9.134,9.134a1.124,1.124,0,0,1,0,1.594L19.547,14.35a1.13,1.13,0,0,1-1.612-.019l-5.392-5.66V22.182a1.126,1.126,0,0,1-1.128,1.128H9.91a1.126,1.126,0,0,1-1.128-1.128V8.671l-5.4,5.665a1.121,1.121,0,0,1-1.612.019Z" transform="translate(-0.397 -2.246)"/>
</svg>
