<svg xmlns="http://www.w3.org/2000/svg" width="14.725" height="19.605" viewBox="0 0 14.725 19.605">
  <path id="路径_9" data-name="路径 9" d="M2.242,0V-19.605H9.379a8.912,8.912,0,0,1,5.045,1.2,3.87,3.87,0,0,1,1.764,3.391,4.013,4.013,0,0,1-1.073,2.775,5.639,5.639,0,0,1-2.741,1.654v.055a5.433,5.433,0,0,1,3.343,1.545,4.321,4.321,0,0,1,1.251,3.131,5.233,5.233,0,0,1-1.928,4.272A8.067,8.067,0,0,1,9.775,0ZM6.658-16.352V-11.7H8.6a3.236,3.236,0,0,0,2.153-.663,2.26,2.26,0,0,0,.786-1.825q0-2.16-3.227-2.16Zm0,7.93v5.168H9.051a3.682,3.682,0,0,0,2.4-.711,2.375,2.375,0,0,0,.868-1.941,2.216,2.216,0,0,0-.854-1.846,3.78,3.78,0,0,0-2.386-.67Z" transform="translate(-2.242 19.605)"/>
</svg>
