<svg xmlns="http://www.w3.org/2000/svg" width="21.144" height="20.608" viewBox="0 0 21.144 20.608">
  <path id="Icon_awesome-arrow-left" data-name="Icon awesome-arrow-left" d="M12.15,21.875,11.1,22.923a1.128,1.128,0,0,1-1.6,0L.329,13.754a1.128,1.128,0,0,1,0-1.6L9.5,2.98a1.128,1.128,0,0,1,1.6,0L12.15,4.028a1.134,1.134,0,0,1-.019,1.619L6.445,11.064H20.008A1.13,1.13,0,0,1,21.14,12.2v1.51a1.13,1.13,0,0,1-1.133,1.133H6.445l5.686,5.417A1.126,1.126,0,0,1,12.15,21.875Z" transform="translate(0.004 -2.647)"/>
</svg>
