<svg xmlns="http://www.w3.org/2000/svg" width="27.973" height="19.981" viewBox="0 0 27.973 19.981">
  <path id="Icon_metro-youtube-play" data-name="Icon metro-youtube-play" d="M22.551,16.6a.9.9,0,0,0-.468-.843l-7.992-5a.941.941,0,0,0-1.015-.031.93.93,0,0,0-.515.874V21.6a.93.93,0,0,0,.515.874,1.08,1.08,0,0,0,.484.125.889.889,0,0,0,.531-.156l7.992-5a.9.9,0,0,0,.468-.843Zm7.992,0q0,1.5-.016,2.341T30.4,21.073a17.267,17.267,0,0,1-.351,2.3,3.652,3.652,0,0,1-1.077,1.92,3.292,3.292,0,0,1-1.936.905,102.339,102.339,0,0,1-10.474.39A102.339,102.339,0,0,1,6.083,26.2,3.327,3.327,0,0,1,4.139,25.3a3.629,3.629,0,0,1-1.085-1.92,19.322,19.322,0,0,1-.336-2.3q-.117-1.288-.133-2.131T2.571,16.6q0-1.5.016-2.341t.133-2.131a17.267,17.267,0,0,1,.351-2.3,3.652,3.652,0,0,1,1.077-1.92A3.292,3.292,0,0,1,6.083,7a102.339,102.339,0,0,1,10.474-.39A102.337,102.337,0,0,1,27.031,7a3.327,3.327,0,0,1,1.943.905,3.629,3.629,0,0,1,1.085,1.92,19.322,19.322,0,0,1,.336,2.3q.117,1.288.133,2.131T30.543,16.6Z" transform="translate(-2.571 -6.61)"/>
</svg>
