<svg xmlns="http://www.w3.org/2000/svg" width="17.085" height="17.085" viewBox="0 0 17.085 17.085">
  <path id="Icon_metro-cross" data-name="Icon metro-cross" d="M19.5,15.654h0l-5.183-5.183L19.5,5.287h0a.535.535,0,0,0,0-.755L17.051,2.084a.535.535,0,0,0-.755,0h0L11.113,7.267,5.93,2.084h0a.535.535,0,0,0-.755,0L2.727,4.532a.535.535,0,0,0,0,.755h0L7.91,10.471,2.727,15.654h0a.535.535,0,0,0,0,.755l2.448,2.448a.535.535,0,0,0,.755,0h0l5.183-5.183L16.3,18.857h0a.535.535,0,0,0,.755,0L19.5,16.409a.535.535,0,0,0,0-.755Z" transform="translate(-2.571 -1.928)"/>
</svg>
