<svg xmlns="http://www.w3.org/2000/svg" width="18.868" height="18.868" viewBox="0 0 18.868 18.868">
  <path id="Icon_awesome-palette" data-name="Icon awesome-palette" d="M7.529.183A9.384,9.384,0,0,0,.192,7.495c-1.364,6.891,4.853,12.028,9.537,11.3A2.326,2.326,0,0,0,11.3,15.418a2.493,2.493,0,0,1,2.244-3.626h2.937a2.411,2.411,0,0,0,2.392-2.406A9.441,9.441,0,0,0,7.529.183ZM3.538,11.791a1.179,1.179,0,1,1,1.179-1.179A1.178,1.178,0,0,1,3.538,11.791ZM4.717,7.074A1.179,1.179,0,1,1,5.9,5.9,1.178,1.178,0,0,1,4.717,7.074ZM9.434,4.716a1.179,1.179,0,1,1,1.179-1.179A1.178,1.178,0,0,1,9.434,4.716Zm4.717,2.359A1.179,1.179,0,1,1,15.331,5.9,1.178,1.178,0,0,1,14.152,7.074Z" transform="translate(-0.001 0.002)"/>
</svg>
